#!OML:ASF F:\VICON\USERDATA\INSTALL\rory3\rory3.ASF
:FULLY-SPECIFIED
:DEGREES
1920
root -0.0525549 17.4214 0.846037 7.28469 2.55232 -3.24031
lowerback -4.0147 -1.35336 -4.10743
upperback -5.01235 -1.70388 1.3343
thorax -2.76552 -0.695414 3.6527
lowerneck -2.11391 -14.599 -18.6454
upperneck 13.4007 -28.0518 39.1903
head 15.5005 -12.7922 14.6243
rclavicle -1.01629e-014 1.31198e-014
rhumerus -363.237 -51.1353 -401.666
rradius 108.437
rwrist -20.8185
rhand -46.2296 -1.69101
rfingers 7.12502
rthumb -18.9665 -30.7863
lclavicle -1.01629e-014 1.31198e-014
lhumerus 263.522 -61.8921 -223.274
lradius 103.593
lwrist -9.44312
lhand -8.16934 3.43901
lfingers 7.12502
lthumb 17.7459 32.6493
rfemur 1.2698 9.83668 21.85
rtibia 1.27222e-014
rfoot -7.20491 -9.48805
rtoes -11.9545
lfemur -10.6341 -18.6639 -12.2783
ltibia 19.5972
lfoot -16.2171 11.84
ltoes -19.1601
1921
root -0.0603005 17.4275 0.844282 7.26969 2.53823 -3.31055
lowerback -4.0301 -1.34154 -4.08034
upperback -4.97985 -1.68944 1.23119
thorax -2.72759 -0.6924 3.52982
lowerneck -1.97736 -14.639 -19.096
upperneck 13.3555 -28.0196 38.9999
head 15.4558 -12.8306 14.6118
rclavicle 2.83268e-015 -1.11319e-014
rhumerus -363.611 -50.5755 -401.177
rradius 108.216
rwrist -19.789
rhand -45.7344 -0.948916
rfingers 7.12502
rthumb -18.4902 -30.0901
lclavicle 2.83268e-015 -1.11319e-014
lhumerus 264.015 -61.8934 -223.973
lradius 103.912
lwrist -9.25082
lhand -7.54941 3.53477
lfingers 7.12502
lthumb 18.3424 32.69
rfemur 1.26344 9.86082 21.9461
rtibia 1.11319e-014
rfoot -7.17053 -9.48302
rtoes -11.4652
lfemur -10.549 -18.9205 -12.1798
ltibia 19.4758
lfoot -16.1714 12.0815
ltoes -18.863
1922
root -0.0676143 17.4303 0.840698 7.25714 2.52615 -3.31544
lowerback -4.08645 -1.33312 -4.1288
upperback -4.89687 -1.67563 1.12364
thorax -2.61264 -0.690061 3.4431
lowerneck -1.94193 -14.7205 -19.4594
upperneck 13.3282 -28.0068 38.6914
head 15.3795 -12.8509 14.4828
rclavicle 1.55549e-014 3.02153e-014
rhumerus -363.869 -50.0767 -400.787
rradius 108.126
rwrist -18.799
rhand -44.9479 -1.15609
rfingers 7.12502
rthumb -17.7335 -30.3675
lclavicle 1.55549e-014 3.02153e-014
lhumerus 264.611 -61.9629 -224.729
lradius 104.267
lwrist -9.00829
lhand -6.89545 3.72799
lfingers 7.12502
lthumb 18.9714 32.8228
rfemur 1.2503 9.87424 21.9654
rtibia -7.95139e-015
rfoot -7.21465 -9.40073
rtoes -10.9399
lfemur -10.4895 -19.163 -12.1487
ltibia 19.3899
lfoot -16.2161 12.2814
ltoes -18.3036
1923
root -0.0742856 17.431 0.835503 7.28268 2.47669 -3.40967
lowerback -4.1855 -1.29544 -4.05509
upperback -4.83063 -1.62339 1.01801
thorax -2.49704 -0.671835 3.29
lowerneck -1.9134 -14.7907 -19.7773
upperneck 13.3163 -27.9949 38.4111
head 15.3163 -12.8679 14.3674
rclavicle 2.68359e-014 2.78299e-015
rhumerus -364.279 -49.4715 -400.301
rradius 108.017
rwrist -17.9134
rhand -44.412 -1.18561
rfingers 7.12502
rthumb -17.2178 -30.4428
lclavicle 2.68359e-014 2.78299e-015
lhumerus 265.058 -62.1235 -225.364
lradius 104.594
lwrist -8.74497
lhand -6.14215 4.0205
lfingers 7.12502
lthumb 19.6957 33.0427
rfemur 1.18863 9.9385 22.0788
rtibia -3.18055e-015
rfoot -7.20561 -9.38965
rtoes -11.2455
lfemur -10.4771 -19.3235 -12.0079
ltibia 19.3135
lfoot -16.3049 12.4874
ltoes -18.1315
1924
root -0.0807814 17.4314 0.831852 7.32275 2.36227 -3.56915
lowerback -4.28167 -1.19946 -3.89325
upperback -4.82358 -1.49641 0.914328
thorax -2.45221 -0.615982 3.09259
lowerneck -1.79758 -14.8604 -20.141
upperneck 13.3187 -28.0066 38.15
head 15.2702 -12.9094 14.2812
rclavicle -1.52567e-014 -2.62396e-014
rhumerus -364.858 -48.8569 -399.613
rradius 107.827
rwrist -17.149
rhand -43.9396 -0.646219
rfingers 7.12502
rthumb -16.763 -29.9426
lclavicle -1.52567e-014 -2.62396e-014
lhumerus 265.255 -62.2727 -225.778
lradius 104.902
lwrist -8.52871
lhand -5.45263 4.31968
lfingers 7.12502
lthumb 20.3585 33.2726
rfemur 1.10559 10.077 22.2578
rtibia -4.77083e-015
rfoot -7.14168 -9.4104
rtoes -11.64
lfemur -10.4734 -19.4166 -11.8034
ltibia 19.2718
lfoot -16.4625 12.6343
ltoes -17.3456
1925
root -0.0856368 17.4335 0.827378 7.35775 2.28765 -3.64154
lowerback -4.32408 -1.10856 -3.75609
upperback -4.82824 -1.37876 0.777597
thorax -2.44814 -0.563485 2.87628
lowerneck -1.65359 -14.9186 -20.5456
upperneck 13.2903 -27.9896 37.8938
head 15.2017 -12.9452 14.214
rclavicle 2.6339e-014 5.56597e-015
rhumerus -365.381 -48.3012 -398.946
rradius 107.665
rwrist -16.5158
rhand -43.316 0.0365479
rfingers 7.12502
rthumb -16.1626 -29.3096
lclavicle 2.6339e-014 5.56597e-015
lhumerus 265.54 -62.4233 -226.295
lradius 105.231
lwrist -8.32568
lhand -4.76845 4.4848
lfingers 7.12502
lthumb 21.0159 33.3661
rfemur 1.03289 10.1637 22.3369
rtibia 7.95139e-015
rfoot -7.12648 -9.43391
rtoes -11.5958
lfemur -10.4818 -19.5799 -11.6974
ltibia 19.2295
lfoot -16.7317 12.6415
ltoes -15.121
1926
root -0.0893938 17.4361 0.820736 7.35095 2.24737 -3.68022
lowerback -4.27729 -1.06414 -3.66867
upperback -4.79279 -1.32412 0.697979
thorax -2.44464 -0.540714 2.74671
lowerneck -1.61249 -14.9997 -20.9441
upperneck 13.2428 -27.9492 37.5372
head 15.0957 -12.9542 14.0732
rclavicle 1.13804e-014 3.18055e-015
rhumerus -365.704 -47.605 -398.461
rradius 107.535
rwrist -15.7476
rhand -42.8426 0.44214
rfingers 7.12502
rthumb -15.7068 -28.9404
lclavicle 1.13804e-014 3.18055e-015
lhumerus 266.184 -62.5021 -227.062
lradius 105.493
lwrist -8.07596
lhand -4.0258 4.62797
lfingers 7.12502
lthumb 21.7292 33.4284
rfemur 0.998653 10.2099 22.3819
rtibia 1.11319e-014
rfoot -7.16137 -9.40791
rtoes -11.4145
lfemur -10.4491 -19.8223 -11.6466
ltibia 19.1744
lfoot -16.7243 12.8693
ltoes -14.723
1927
root -0.0939802 17.4374 0.813008 7.35808 2.1964 -3.67471
lowerback -4.23643 -1.0189 -3.62847
upperback -4.76069 -1.26752 0.593852
thorax -2.44098 -0.515888 2.61833
lowerneck -1.54212 -15.0869 -20.8973
upperneck 13.2274 -27.9069 37.2193
head 14.6355 -12.8623 13.6221
rclavicle -1.09332e-015 -4.77083e-015
rhumerus -366.003 -46.9748 -398.051
rradius 107.432
rwrist -15.0145
rhand -42.1712 0.730989
rfingers 7.12502
rthumb -15.06 -28.7012
lclavicle -1.09332e-015 -4.77083e-015
lhumerus 266.743 -62.5845 -227.819
lradius 105.797
lwrist -7.74134
lhand -3.22528 4.8419
lfingers 7.12502
lthumb 22.4977 33.5513
rfemur 0.954927 10.2614 22.3795
rtibia 3.18055e-015
rfoot -7.16809 -9.38219
rtoes -11.4238
lfemur -10.4095 -20.0106 -11.6357
ltibia 19.0862
lfoot -16.6612 13.1445
ltoes -15.2057
1928
root -0.0987528 17.4383 0.806512 7.36064 2.15418 -3.73607
lowerback -4.22084 -0.966932 -3.50387
upperback -4.75162 -1.20299 0.497608
thorax -2.44843 -0.488898 2.45075
lowerneck -1.41915 -15.1416 -21.2217
upperneck 13.2192 -27.8456 36.8281
head 14.5067 -12.8683 13.4819
rclavicle -1.60519e-014 4.77083e-015
rhumerus -366.286 -46.3733 -397.659
rradius 107.386
rwrist -14.4499
rhand -41.2816 1.05416
rfingers 7.12502
rthumb -14.2029 -28.4403
lclavicle -1.60519e-014 4.77083e-015
lhumerus 267.205 -62.632 -228.538
lradius 106.146
lwrist -7.36082
lhand -2.45445 5.13347
lfingers 7.12502
lthumb 23.2375 33.7515
rfemur 0.930685 10.3128 22.4529
rtibia 1.59028e-015
rfoot -7.10246 -9.40899
rtoes -11.1922
lfemur -10.3458 -20.1266 -11.5501
ltibia 18.9563
lfoot -16.7546 13.3179
ltoes -14.887
1929
root -0.102478 17.4396 0.799411 7.38163 2.12822 -3.73858
lowerback -4.24039 -0.933222 -3.4509
upperback -4.73038 -1.15936 0.419547
thorax -2.42054 -0.47075 2.34097
lowerneck -1.40928 -15.2148 -21.6231
upperneck 13.3174 -27.8172 36.3737
head 14.4617 -12.8786 13.3202
rclavicle -1.04362e-015 -2.38542e-015
rhumerus -366.483 -45.7145 -397.35
rradius 107.29
rwrist -13.7467
rhand -40.849 1.62483
rfingers 7.12502
rthumb -13.7861 -27.8984
lclavicle -1.04362e-015 -2.38542e-015
lhumerus 267.848 -62.668 -229.402
lradius 106.511
lwrist -6.93096
lhand -1.57288 5.42603
lfingers 7.12502
lthumb 24.083 33.9347
rfemur 0.878073 10.3412 22.4612
rtibia -9.54166e-015
rfoot -6.98839 -9.46588
rtoes -11.4245
lfemur -10.2939 -20.3171 -11.5202
ltibia 18.7856
lfoot -16.6553 13.6743
ltoes -15.8394
1930
root -0.106645 17.4421 0.792112 7.37865 2.10826 -3.66369
lowerback -4.21235 -0.925809 -3.5349
upperback -4.70782 -1.14893 0.382459
thorax -2.41304 -0.464131 2.3503
lowerneck -1.47123 -15.2903 -22.0319
upperneck 13.4887 -27.7634 35.799
head 14.4184 -12.8677 13.1078
rclavicle -9.19379e-015 -5.56597e-015
rhumerus -366.541 -44.9909 -397.121
rradius 107.11
rwrist -12.8935
rhand -40.3957 1.86823
rfingers 7.12502
rthumb -13.3492 -27.6842
lclavicle -9.19379e-015 -5.56597e-015
lhumerus 268.668 -62.6142 -230.37
lradius 106.826
lwrist -6.39899
lhand -0.627004 5.70535
lfingers 7.12502
lthumb 24.9897 34.091
rfemur 0.858842 10.3518 22.3876
rtibia -4.77083e-015
rfoot -7.08356 -9.44046
rtoes -11.316
lfemur -10.2092 -20.6428 -11.5855
ltibia 18.6236
lfoot -16.2726 14.302
ltoes -18.9251
1931
root -0.111628 17.4442 0.783945 7.35053 2.06013 -3.60478
lowerback -4.17506 -0.922735 -3.63546
upperback -4.6594 -1.14335 0.380462
thorax -2.38271 -0.459704 2.40488
lowerneck -1.48632 -15.3334 -22.4207
upperneck 13.5298 -27.6129 35.2338
head 14.2698 -12.8223 12.9155
rclavicle 5.71506e-015 -2.38542e-015
rhumerus -366.47 -44.2869 -397.003
rradius 106.906
rwrist -11.9905
rhand -39.7349 2.22757
rfingers 7.12502
rthumb -12.7122 -27.3655
lclavicle 5.71506e-015 -2.38542e-015
lhumerus 269.608 -62.5619 -231.429
lradius 107.102
lwrist -5.86459
lhand 0.314976 5.89296
lfingers 7.12502
lthumb 25.892 34.15
rfemur 0.862861 10.392 22.3398
rtibia -1.59028e-015
rfoot -7.19256 -9.41398
rtoes -11.2315
lfemur -10.105 -21.0353 -11.6423
ltibia 18.49
lfoot -16.1248 14.8924
ltoes -20.5735
